<?xml version="1.0" encoding="utf-8"?>
<!-- Generator: Adobe Illustrator 26.0.0, SVG Export Plug-In . SVG Version: 6.00 Build 0)  -->
<svg version="1.1" id="Layer_1" xmlns="http://www.w3.org/2000/svg" xmlns:xlink="http://www.w3.org/1999/xlink" x="0px" y="0px"
	 viewBox="0 0 6089.1 4059.4" style="enable-background:new 0 0 6089.1 4059.4;" xml:space="preserve">
<style type="text/css">
	.st0{fill:#FFFFFF;}
</style>
<g>
	<g>
		<polygon class="st0" points="1876.6,1341 1136.7,2691.7 1455.2,2691.7 2299.7,1150 1876.6,1341 		"/>
		<polygon class="st0" points="2093.7,944.6 2093.7,944.6 1987.4,1138.7 2412.2,944.6 2412.2,944.6 2518.5,750.5 		"/>
	</g>
	<path class="st0" d="M3289.6,1581.4c-15.5-23-36.2-41.2-62-54.5h-316.4c-13.1,4-26.3,8.4-39.4,13.3
		c-74,27.4-128.1,61.3-224.3,125.8l74.3-135.6l1.9-3.5l-424.8,194.2l-0.2,0.3l-531.4,970.3h318.4l261.7-477.8
		c43.2-79.6,75.5-141.6,104-189.8l0.1-0.1c21.6-36.5,41-65.2,61.4-87.9c55.7-61.8,114.9-115,184.2-153.8
		c69.3-38.8,127.1-58.2,173.2-58.2c42.4,0,71.7,11.5,87.8,34.6c16.1,23.1,17.5,54.7,4,95c-6.4,19-36.3,77.9-89.8,176.8l-265.5,489
		l-0.2,0.4l-93.3,171.8h317.7l366.5-669.1c58.5-108.4,88.9-182.9,102.2-222.7C3329.8,1709.2,3326.5,1636.3,3289.6,1581.4z"/>
	<path class="st0" d="M5245.5,1749.4c36.2-21.9,87.3-32.9,153.2-32.9c65.9,0,117.5,14.3,154.8,42.8c27.3,21.2,41.6,53.1,42.8,95.5
		l310.2,0c-8.6-167.6-24.1-217.2-73.9-273.4c-22.3-25.2-57-41.2-97.6-54.5H5285c-89.2,22.9-168.9,60.2-239.1,111.6
		c-91.1,66.6-152,146.1-182.8,238.3c-30.9,92.3-20.3,166.9,31.7,224c33.2,36.6,134.4,86.4,303.7,149.4
		c63.2,23.4,100.2,43.2,110.9,59.3c9.7,16.9,11.1,35.9,4,57.1c-10.5,31.5-34.4,58.2-71.8,80.2c-54,32.2-116.8,48.3-188.5,48.3
		c-69.5,0-120-13.3-151.4-40.1c-31.3-26.7-48.4-39.6-53.9-104.1h-318.8c-4.5,112,24.9,214.6,96.1,276.4
		c31.8,27.6,73.3,49.1,124.4,64.4h462.8c75.2-20.2,143.9-51.4,206-93.4c120.2-81.2,198.7-177.1,235.6-287.7
		c28.6-85.7,16.5-158.9-36.5-219.6c-37.6-43.2-125.7-87.1-264.6-131.8c-89.8-29.3-141.9-49.8-156.3-61.5
		c-22.9-19-29.5-43.2-19.7-72.5C5186.3,1796.7,5209.2,1771.4,5245.5,1749.4z"/>
	<path class="st0" d="M4565.8,1634.3c-30.6-49.3-74.6-85.1-132.1-107.4h-388.5c-143.2,37.9-275.5,114.7-397.1,230.2
		c-133,127.3-226.8,272.4-281.3,435.5c-55.7,166.9-50.4,301,16,402.4c26.3,40.2,60,72.4,101.1,96.7h514.9
		c23-9.3,45.9-19.8,68.8-31.6c113.3-58,263.9-193.2,358.7-309.2l-318.9,0c-96.9,110.7-198.8,166.1-305.7,166.1
		c-65.1,0-112.2-24.3-141.2-73c-29.1-48.6-30.3-112.6-3.8-191.9c2.2-6.8,5.9-16.5,10.9-29.2l71.4-139.9l-71.3,139.9l100.2-196.4
		l8.5-16.8l-8.5,16.8h-2c7.3-14,14.9-27.5,22.6-40.5l-12.1,23.7l12.3-24l0.1-0.1c46.2-78,99.1-138.4,158.6-181.3
		c69.4-50.1,137.5-75.2,204.2-75.2c66.5,0,112.3,22.1,137.2,66.2c24.9,44.2,22.6,110.4-6.8,198.7c-2.5,7.6-6.5,18.4-12,32.6h0.6
		c0,0-1.3,1.8-3.8,5.1l-3.8,10.8l0,0.1c-407-70.6-562.5,175-562.5,175l499,3.7l0,0l11.2,0.1l240.5,1.8l0.1-0.2l24.7,0.2
		c35.7-62.1,66.5-132,92.6-209.9C4622.5,1850.7,4621.7,1724.5,4565.8,1634.3z"/>
	<line class="st0" x1="718.2" y1="2300.6" x2="502.7" y2="2691.7"/>
	<path class="st0" d="M823.7,2690.9l-154.6-280.7l-5.6-10.2v-0.1l-54.7-99.3c-5.1-12.6-34.7-61.6-79.6-144.6
		c-44.2-81.6-71.1-128.8-80.4-145.9l-10.8-19.6l-255.2,115.2l320.5,585.1l0.5,0.9h320.5L823.7,2690.9z"/>
	<path class="st0" d="M1461.2,1526.9l-366.4,167l-59,26.9v0.1l-157.7,289.3c-9.3,17.1-36.2,64.2-80.4,145.9
		c-22.5,41.5-41.1,74.5-54.7,98.7l-2.5,4.4c-10.6,18.8-17.9,31.7-21.2,38.7c-0.5,1.1-0.9,2-1.2,2.8l-48.5,88l-6.2,11.3v0.1l-0.6,1.1
		l-5.1,9.1l-1.1,1.9l-4.5,8.2l-109.1,199.3l-39.5,72.2h319.6l0.4-0.8L1460.1,1529l0.1-0.1L1461.2,1526.9L1461.2,1526.9z"/>
	<g>
		<path class="st0" d="M479.8,3106.8c0-109.6,93.1-201.5,202.7-201.5c55.6,0,106.7,23.3,143.6,61.3l-40.3,38.6
			c-26.1-28.4-63-47.1-103.3-47.1c-77.8,0-143.6,68.1-143.6,148.7c0,81.2,65.9,149.3,143.6,149.3c40.3,0,77.2-18.7,103.3-47.1
			l40.3,38.6c-36.9,37.5-88,61.3-143.6,61.3C572.9,3308.9,479.8,3216.4,479.8,3106.8z"/>
		<path class="st0" d="M1070.2,3106.8c0-109.6,93.1-201.5,202.7-201.5s201.5,92,201.5,201.5c0,109.6-92,202.1-201.5,202.1
			S1070.2,3216.4,1070.2,3106.8z M1416,3106.8c0-80.6-65.3-148.7-143.1-148.7c-77.8,0-143.6,68.1-143.6,148.7
			c0,81.2,65.9,149.3,143.6,149.3C1350.7,3256.1,1416,3188,1416,3106.8z"/>
		<path class="st0" d="M1761.7,2912.1h57.3l136.8,254.9l136.8-254.9h57.3v390h-57.3v-277.6l-136.8,254.9L1819,3024.5v277.6h-57.3
			V2912.1z"/>
		<path class="st0" d="M2527,2912.1h57.3l136.8,254.9l136.8-254.9h57.3v390H2858v-277.6l-136.8,254.9l-136.8-254.9v277.6H2527
			V2912.1z"/>
		<path class="st0" d="M3332,2965.5v111.3h206.7v53.4H3332v118.7h228.8v53.4h-286.7v-390h286.7v53.4H3332z"/>
		<path class="st0" d="M4108.7,3160.8l99.4,141.4h-65.9l-95.4-135.7h-89.7v135.7h-57.3v-390h164.1c82.3,0,144.8,52.8,144.8,127.2
			C4208.6,3099.4,4167.7,3145.4,4108.7,3160.8z M3957.1,3113.1h98.8c56.2,0,94.2-27.8,94.2-73.8c0-46-38-73.8-94.2-73.8h-98.8
			V3113.1z"/>
		<path class="st0" d="M4536.8,3106.8c0-109.6,93.1-201.5,202.7-201.5c55.6,0,106.7,23.3,143.6,61.3l-40.3,38.6
			c-26.1-28.4-63-47.1-103.3-47.1c-77.8,0-143.6,68.1-143.6,148.7c0,81.2,65.9,149.3,143.6,149.3c40.3,0,77.2-18.7,103.3-47.1
			l40.3,38.6c-36.9,37.5-88,61.3-143.6,61.3C4629.9,3308.9,4536.8,3216.4,4536.8,3106.8z"/>
		<path class="st0" d="M5265.7,2965.5v111.3h206.7v53.4h-206.7v118.7h228.8v53.4h-286.7v-390h286.7v53.4H5265.7z"/>
	</g>
</g>
<g>
</g>
<g>
</g>
<g>
</g>
<g>
</g>
<g>
</g>
<g>
</g>
</svg>
